<svg width="367" height="111" viewBox="0 0 367 111" fill="none" xmlns="http://www.w3.org/2000/svg">
<g clip-path="url(#clip0)">
<path d="M60.6447 26V62.599C60.6447 65.6193 60.6447 68.6396 60.6447 71.4822H52.1168C51.9391 70.4162 51.9391 68.8173 51.9391 67.5736C50.3401 70.0609 47.8528 72.3706 41.1015 72.3706C32.2183 72.3706 26 65.797 26 56.203C26 45.7208 34.1726 39.5025 41.9898 39.5025C48.5635 39.5025 51.0508 41.9898 51.9391 43.2335V26H60.6447ZM34.8832 56.0254C34.8832 61.1777 37.9036 65.6193 43.5888 65.6193C49.4518 65.6193 52.2944 61.7107 52.2944 55.8477C52.2944 49.9848 50.1624 46.2538 43.7665 46.2538C37.7259 46.2538 34.8832 50.8731 34.8832 56.0254Z" fill="#333333"/>
<path d="M120.34 62.066C121.228 64.7309 123.716 66.5076 128.335 66.5076C133.132 66.5076 134.553 64.9086 134.553 63.132C134.553 61.1776 133.132 59.934 126.381 59.0457C114.655 57.4467 112.878 53.1827 112.878 49.4517C112.878 45.0101 116.431 39.6802 126.914 39.6802C137.929 39.6802 141.482 45.0101 142.015 49.2741H133.487C132.954 47.6751 131.888 45.5431 126.736 45.5431C122.294 45.5431 121.584 47.3198 121.584 48.5634C121.584 50.1624 122.65 51.2284 129.046 52.1167C141.482 53.8934 143.259 57.9797 143.259 62.4213C143.259 68.1066 138.995 72.7259 127.98 72.7259C119.274 72.7259 112.878 68.9949 111.99 62.2436H120.34V62.066Z" fill="#333333"/>
<path d="M177.904 63.1321C177.904 66.8631 178.081 70.9494 178.081 71.66H169.909C169.731 70.7717 169.553 68.6397 169.553 67.7514C167.954 70.5941 164.223 72.5484 158.183 72.5484C149.477 72.5484 146.102 67.2184 146.102 62.4215C146.102 54.2489 153.386 51.9392 162.447 51.9392C165.289 51.9392 168.31 51.9392 169.376 51.9392V50.6956C169.376 47.8529 168.132 45.5433 162.98 45.5433C158.183 45.5433 157.117 47.4976 156.584 49.6296H147.878C148.234 45.721 150.899 39.5027 162.802 39.5027C175.772 39.5027 177.904 45.721 177.904 50.8732V63.1321V63.1321ZM169.553 57.4468C168.843 57.4468 166.533 57.4468 162.802 57.4468C157.117 57.4468 154.629 58.8682 154.629 61.8885C154.629 64.1981 156.406 66.1524 160.492 66.1524C166.888 66.1524 169.376 62.9545 169.376 58.1575V57.4468H169.553Z" fill="#333333"/>
<path d="M191.051 62.066C191.939 64.7309 194.426 66.5076 199.046 66.5076C203.843 66.5076 205.264 64.9086 205.264 63.132C205.264 61.1776 203.843 59.934 197.091 59.0457C185.365 57.4467 183.589 53.1827 183.589 49.4517C183.589 45.0101 187.142 39.6802 197.624 39.6802C208.64 39.6802 212.193 45.0101 212.726 49.2741H204.198C203.665 47.6751 202.599 45.5431 197.447 45.5431C193.005 45.5431 192.294 47.3198 192.294 48.5634C192.294 50.1624 193.36 51.2284 199.756 52.1167C212.193 53.8934 213.969 57.9797 213.969 62.4213C213.969 68.1066 209.706 72.7259 198.69 72.7259C189.985 72.7259 183.589 68.9949 182.7 62.2436H191.051V62.066Z" fill="#333333"/>
<path d="M223.563 40.2131C228.005 56.5583 229.071 61.1776 229.604 64.5532C230.492 60.8223 231.558 56.736 236.711 40.2131H244.883C250.036 57.0913 251.102 61.5329 251.635 64.3756C252.345 61.1776 253.589 55.4923 257.853 40.2131H266.381L256.254 71.4822H247.015C243.64 60.4669 241.508 53.7157 240.442 49.807C239.553 53.005 237.066 61.3553 233.69 71.4822H224.274L214.68 40.2131H223.563Z" fill="#333333"/>
<path d="M299.071 63.1321C299.071 66.8631 299.249 70.9494 299.249 71.66H291.076C290.898 70.7717 290.721 68.6397 290.721 67.7514C289.122 70.5941 285.391 72.5484 279.35 72.5484C270.645 72.5484 267.269 67.2184 267.269 62.4215C267.269 54.2489 274.553 51.9392 283.614 51.9392C286.457 51.9392 289.477 51.9392 290.543 51.9392V50.6956C290.543 47.8529 289.3 45.5433 284.147 45.5433C279.35 45.5433 278.284 47.4976 277.751 49.6296H269.046C269.401 45.721 272.066 39.5027 283.97 39.5027C296.939 39.5027 299.071 45.721 299.071 50.8732V63.1321ZM290.543 57.4468C289.832 57.4468 287.523 57.4468 283.792 57.4468C278.107 57.4468 275.619 58.8682 275.619 61.8885C275.619 64.1981 277.396 66.1524 281.482 66.1524C287.878 66.1524 290.365 62.9545 290.365 58.1575V57.4468H290.543Z" fill="#333333"/>
<path d="M315.061 67.929V84.8072H306.355V48.0305C306.355 45.5432 306.355 42.8783 306.355 40.2133H314.883C315.061 40.9239 315.061 43.0559 315.061 44.6549C316.838 41.8123 320.213 39.325 326.254 39.325C334.427 39.325 341 46.0762 341 55.3148C341 65.9747 333.361 72.3706 325.188 72.3706C319.503 72.3706 316.66 70.2387 315.061 67.929ZM332.117 55.6701C332.117 50.6955 329.274 46.0762 323.589 46.0762C317.371 46.0762 314.883 50.1625 314.883 55.8478C314.883 61.5331 317.726 65.4417 323.589 65.4417C329.097 65.4417 332.117 61.3554 332.117 55.6701Z" fill="#333333"/>
<path d="M87.4719 67.2182C94.7329 67.2182 100.619 61.332 100.619 54.071C100.619 46.81 94.7329 40.9238 87.4719 40.9238C80.2109 40.9238 74.3247 46.81 74.3247 54.071C74.3247 61.332 80.2109 67.2182 87.4719 67.2182Z" fill="white"/>
<path d="M87.472 32.7512C75.7461 32.7512 66.3298 42.1675 66.3298 53.8934C66.3298 65.6192 75.7461 75.2131 87.472 75.2131C99.1978 75.2131 108.614 65.7969 108.614 54.071C108.614 42.3451 99.1978 32.7512 87.472 32.7512ZM87.472 69.3502C78.944 69.3502 72.0151 62.4213 72.0151 53.8934C72.0151 45.3654 78.944 38.4365 87.472 38.4365C95.9999 38.4365 102.929 45.3654 102.929 53.8934C102.929 62.4213 95.9999 69.3502 87.472 69.3502Z" fill="#333333"/>
<path d="M87.4719 67.2182C94.7329 67.2182 100.619 61.332 100.619 54.071C100.619 46.81 94.7329 40.9238 87.4719 40.9238C80.2109 40.9238 74.3247 46.81 74.3247 54.071C74.3247 61.332 80.2109 67.2182 87.4719 67.2182Z" fill="#333333"/>
<path d="M87.4722 35.9492C97.4214 35.9492 105.594 44.1218 105.594 54.071C105.594 64.0203 97.4214 72.1929 87.4722 72.1929" fill="#EBD7C1"/>
<path d="M87.4722 35.9492C97.4214 35.9492 105.594 44.1218 105.594 54.071C105.594 64.0203 97.4214 72.1929 87.4722 72.1929" stroke="white" stroke-width="0.0599684" stroke-miterlimit="10"/>
<path d="M87.4722 35.9492C97.4214 35.9492 105.594 44.1218 105.594 54.071C105.594 64.0203 97.4214 72.1929 87.4722 72.1929" fill="#EBD7C1"/>
<path d="M87.4722 38.6143C96.0001 38.6143 102.929 45.5432 102.929 54.0711C102.929 62.599 96.0001 69.528 87.4722 69.528" fill="#EAB78E"/>
<path d="M95.4672 40.9239C95.4672 40.9239 95.2895 40.9239 95.4672 40.9239C95.2895 40.9239 95.4672 40.9239 95.4672 40.9239ZM95.2895 40.5686C95.1118 40.5686 95.1118 40.5686 95.2895 40.5686V40.5686Z" fill="#EEDCC9"/>
<path d="M87.4722 40.9238C94.7564 40.9238 100.619 46.7868 100.619 54.071C100.619 61.3553 94.7564 67.2182 87.4722 67.2182" fill="#E09556"/>
<path d="M91.9135 66.3299C91.9135 66.3299 91.7359 66.1523 91.9135 66.3299C91.7359 66.1523 91.7359 66.3299 91.9135 66.3299Z" fill="#EDC09C"/>
<path d="M90.6701 66.5076C90.4924 66.6852 90.4924 66.6852 90.6701 66.5076V66.5076Z" fill="#EDC09C"/>
<path d="M96.3552 63.4873C96.1775 63.665 96.1775 63.665 96.3552 63.4873C96.1775 63.665 96.1775 63.665 96.3552 63.4873Z" fill="#EDC09C"/>
<path d="M90.6699 66.6853C90.6699 66.863 90.6699 66.863 90.6699 66.6853C90.6699 66.6853 90.8476 66.6853 90.6699 66.6853Z" fill="#EDC09C"/>
<path d="M95.2892 64.3757H95.1116V64.5534L95.2892 64.3757Z" fill="#EDC09C"/>
<path d="M95.8222 64.3757H95.6445L95.8222 64.198V64.3757Z" fill="#EDC09C"/>
<path d="M87.4722 43.7666C93.1574 43.7666 97.5991 48.3859 97.5991 53.8935C97.5991 59.4011 92.9798 64.0204 87.4722 64.0204" fill="#CA6F21"/>
<path d="M87.8273 64.1979C87.8273 64.1979 87.8273 64.0202 87.8273 64.1979C87.6497 64.1979 87.6497 64.1979 87.8273 64.1979C87.6497 64.1979 87.6497 64.1979 87.6497 64.1979C87.6497 64.1979 87.6497 64.1979 87.8273 64.1979Z" fill="#E4A26B"/>
<path d="M92.8019 45.3655C92.6243 45.3655 92.6243 45.3655 92.8019 45.3655C92.6243 45.3655 92.6243 45.3655 92.8019 45.3655ZM92.9796 45.5431C92.802 45.3655 92.802 45.3655 92.9796 45.5431C92.802 45.3655 92.9796 45.5431 92.9796 45.5431Z" fill="#E4A26B"/>
<path d="M94.4011 61.3552C94.2234 61.5329 94.2234 61.5329 94.4011 61.3552C94.2234 61.5329 94.2234 61.5329 94.4011 61.3552Z" fill="#E4A26B"/>
<path d="M89.6042 64.0203C89.4265 64.0203 89.4265 64.0203 89.6042 64.0203C89.6042 64.1979 89.2489 64.0203 89.6042 64.0203Z" fill="#E4A26B"/>
<path d="M88.3603 60.4669C88.4584 60.4669 88.538 60.3874 88.538 60.2892C88.538 60.1911 88.4584 60.1116 88.3603 60.1116C88.2622 60.1116 88.1826 60.1911 88.1826 60.2892C88.1826 60.3874 88.2622 60.4669 88.3603 60.4669Z" fill="#F8D09F"/>
<path d="M89.2487 61.5331C89.3468 61.5331 89.4264 61.4535 89.4264 61.3554C89.4264 61.2573 89.3468 61.1777 89.2487 61.1777C89.1506 61.1777 89.071 61.2573 89.071 61.3554C89.071 61.4535 89.1506 61.5331 89.2487 61.5331Z" fill="#F4B178"/>
<path d="M90.1371 59.5787C90.2353 59.5787 90.3148 59.4992 90.3148 59.4011C90.3148 59.3029 90.2353 59.2234 90.1371 59.2234C90.039 59.2234 89.9595 59.3029 89.9595 59.4011C89.9595 59.4992 90.039 59.5787 90.1371 59.5787Z" fill="#F4B178"/>
<path d="M91.2031 58.3351C91.3012 58.3351 91.3807 58.2555 91.3807 58.1574C91.3807 58.0593 91.3012 57.9797 91.2031 57.9797C91.1049 57.9797 91.0254 58.0593 91.0254 58.1574C91.0254 58.2555 91.1049 58.3351 91.2031 58.3351Z" fill="#F4B178"/>
<path d="M92.6242 58.1573C92.7223 58.1573 92.8019 58.0778 92.8019 57.9797C92.8019 57.8815 92.7223 57.802 92.6242 57.802C92.5261 57.802 92.4465 57.8815 92.4465 57.9797C92.4465 58.0778 92.5261 58.1573 92.6242 58.1573Z" fill="#F4B178"/>
<path d="M92.8019 56.9137C92.9001 56.9137 92.9796 56.8341 92.9796 56.736C92.9796 56.6379 92.9001 56.5583 92.8019 56.5583C92.7038 56.5583 92.6243 56.6379 92.6243 56.736C92.6243 56.8341 92.7038 56.9137 92.8019 56.9137Z" fill="#F4B178"/>
<path d="M92.9797 54.6039C93.0778 54.6039 93.1573 54.5243 93.1573 54.4262C93.1573 54.3281 93.0778 54.2485 92.9797 54.2485C92.8816 54.2485 92.802 54.3281 92.802 54.4262C92.802 54.5243 92.8816 54.6039 92.9797 54.6039Z" fill="#F4B178"/>
<path d="M92.4467 53.3605C92.5448 53.3605 92.6244 53.2809 92.6244 53.1828C92.6244 53.0847 92.5448 53.0051 92.4467 53.0051C92.3486 53.0051 92.269 53.0847 92.269 53.1828C92.269 53.2809 92.3486 53.3605 92.4467 53.3605Z" fill="#F4B178"/>
<path d="M91.3808 50.3402C91.4789 50.3402 91.5585 50.2607 91.5585 50.1625C91.5585 50.0644 91.4789 49.9849 91.3808 49.9849C91.2827 49.9849 91.2031 50.0644 91.2031 50.1625C91.2031 50.2607 91.2827 50.3402 91.3808 50.3402Z" fill="#F4B178"/>
<path d="M95.1118 48.3856C95.2099 48.3856 95.2894 48.3061 95.2894 48.2079C95.2894 48.1098 95.2099 48.0303 95.1118 48.0303C95.0136 48.0303 94.9341 48.1098 94.9341 48.2079C94.9341 48.3061 95.0136 48.3856 95.1118 48.3856Z" fill="#F4B178"/>
<path d="M98.665 49.9847C98.7631 49.9847 98.8426 49.9052 98.8426 49.8071C98.8426 49.7089 98.7631 49.6294 98.665 49.6294C98.5669 49.6294 98.4873 49.7089 98.4873 49.8071C98.4873 49.9052 98.5669 49.9847 98.665 49.9847Z" fill="#F4B178"/>
<path d="M100.442 49.4519C100.638 49.4519 100.797 49.2928 100.797 49.0965C100.797 48.9003 100.638 48.7412 100.442 48.7412C100.245 48.7412 100.086 48.9003 100.086 49.0965C100.086 49.2928 100.245 49.4519 100.442 49.4519Z" fill="#F4B178"/>
<path d="M101.685 50.5179C101.783 50.5179 101.863 50.4384 101.863 50.3403C101.863 50.2421 101.783 50.1626 101.685 50.1626C101.587 50.1626 101.508 50.2421 101.508 50.3403C101.508 50.4384 101.587 50.5179 101.685 50.5179Z" fill="#F4B178"/>
<path d="M102.574 47.8529C102.672 47.8529 102.751 47.7733 102.751 47.6752C102.751 47.5771 102.672 47.4976 102.574 47.4976C102.476 47.4976 102.396 47.5771 102.396 47.6752C102.396 47.7733 102.476 47.8529 102.574 47.8529Z" fill="#F4B178"/>
<path d="M100.975 45.5431C101.073 45.5431 101.152 45.4635 101.152 45.3654C101.152 45.2673 101.073 45.1877 100.975 45.1877C100.877 45.1877 100.797 45.2673 100.797 45.3654C100.797 45.4635 100.877 45.5431 100.975 45.5431Z" fill="#F4B178"/>
<path d="M96.3553 55.4924C96.5516 55.4924 96.7107 55.3333 96.7107 55.1371C96.7107 54.9408 96.5516 54.7817 96.3553 54.7817C96.1591 54.7817 96 54.9408 96 55.1371C96 55.3333 96.1591 55.4924 96.3553 55.4924Z" fill="#F4B178"/>
<path d="M98.3097 53.3605C98.4079 53.3605 98.4874 53.2809 98.4874 53.1828C98.4874 53.0847 98.4079 53.0051 98.3097 53.0051C98.2116 53.0051 98.1321 53.0847 98.1321 53.1828C98.1321 53.2809 98.2116 53.3605 98.3097 53.3605Z" fill="#F4B178"/>
<path d="M97.4213 46.7867C97.5194 46.7867 97.599 46.7072 97.599 46.6091C97.599 46.5109 97.5194 46.4314 97.4213 46.4314C97.3232 46.4314 97.2437 46.5109 97.2437 46.6091C97.2437 46.7072 97.3232 46.7867 97.4213 46.7867Z" fill="#F4B178"/>
<path d="M99.1979 42.5228C99.2961 42.5228 99.3756 42.4433 99.3756 42.3451C99.3756 42.247 99.2961 42.1675 99.1979 42.1675C99.0998 42.1675 99.0203 42.247 99.0203 42.3451C99.0203 42.4433 99.0998 42.5228 99.1979 42.5228Z" fill="#F4B178"/>
<path d="M97.9543 41.6346C98.0524 41.6346 98.1319 41.5551 98.1319 41.457C98.1319 41.3588 98.0524 41.2793 97.9543 41.2793C97.8562 41.2793 97.7766 41.3588 97.7766 41.457C97.7766 41.5551 97.8562 41.6346 97.9543 41.6346Z" fill="#F4B178"/>
<path d="M97.0658 43.2335C97.164 43.2335 97.2435 43.154 97.2435 43.0558C97.2435 42.9577 97.164 42.8782 97.0658 42.8782C96.9677 42.8782 96.8882 42.9577 96.8882 43.0558C96.8882 43.154 96.9677 43.2335 97.0658 43.2335Z" fill="#F4B178"/>
<path d="M89.9594 48.0304C90.0575 48.0304 90.1371 47.9508 90.1371 47.8527C90.1371 47.7546 90.0575 47.675 89.9594 47.675C89.8613 47.675 89.7817 47.7546 89.7817 47.8527C89.7817 47.9508 89.8613 48.0304 89.9594 48.0304Z" fill="#F4B178"/>
<path d="M91.9137 69.5279C92.0119 69.5279 92.0914 69.4484 92.0914 69.3503C92.0914 69.2522 92.0119 69.1726 91.9137 69.1726C91.8156 69.1726 91.7361 69.2522 91.7361 69.3503C91.7361 69.4484 91.8156 69.5279 91.9137 69.5279Z" fill="#F4B178"/>
<path d="M93.3351 69.1727C93.4333 69.1727 93.5128 69.0932 93.5128 68.995C93.5128 68.8969 93.4333 68.8174 93.3351 68.8174C93.237 68.8174 93.1575 68.8969 93.1575 68.995C93.1575 69.0932 93.237 69.1727 93.3351 69.1727Z" fill="#F4B178"/>
<path d="M94.5788 69.8832C94.6769 69.8832 94.7565 69.8036 94.7565 69.7055C94.7565 69.6074 94.6769 69.5278 94.5788 69.5278C94.4807 69.5278 94.4011 69.6074 94.4011 69.7055C94.4011 69.8036 94.4807 69.8832 94.5788 69.8832Z" fill="#F4B178"/>
<path d="M95.6447 68.8172C95.7428 68.8172 95.8224 68.7377 95.8224 68.6396C95.8224 68.5415 95.7428 68.4619 95.6447 68.4619C95.5466 68.4619 95.467 68.5415 95.467 68.6396C95.467 68.7377 95.5466 68.8172 95.6447 68.8172Z" fill="#F4B178"/>
<path d="M97.0658 67.2184C97.164 67.2184 97.2435 67.1388 97.2435 67.0407C97.2435 66.9426 97.164 66.863 97.0658 66.863C96.9677 66.863 96.8882 66.9426 96.8882 67.0407C96.8882 67.1388 96.9677 67.2184 97.0658 67.2184Z" fill="#F4B178"/>
<path d="M97.4213 65.9747C97.5194 65.9747 97.599 65.8952 97.599 65.7971C97.599 65.6989 97.5194 65.6194 97.4213 65.6194C97.3232 65.6194 97.2437 65.6989 97.2437 65.7971C97.2437 65.8952 97.3232 65.9747 97.4213 65.9747Z" fill="#F4B178"/>
<path d="M98.3097 62.7767C98.4079 62.7767 98.4874 62.6972 98.4874 62.5991C98.4874 62.5009 98.4079 62.4214 98.3097 62.4214C98.2116 62.4214 98.1321 62.5009 98.1321 62.5991C98.1321 62.6972 98.2116 62.7767 98.3097 62.7767Z" fill="#F4B178"/>
<path d="M102.396 63.4872C102.494 63.4872 102.574 63.4076 102.574 63.3095C102.574 63.2114 102.494 63.1318 102.396 63.1318C102.298 63.1318 102.218 63.2114 102.218 63.3095C102.218 63.4076 102.298 63.4872 102.396 63.4872Z" fill="#F4B178"/>
<path d="M98.4872 60.1117C98.5854 60.1117 98.6649 60.0321 98.6649 59.934C98.6649 59.8359 98.5854 59.7563 98.4872 59.7563C98.3891 59.7563 98.3096 59.8359 98.3096 59.934C98.3096 60.0321 98.3891 60.1117 98.4872 60.1117Z" fill="#F4B178"/>
<path d="M93.6904 42.1673C93.7885 42.1673 93.868 42.0878 93.868 41.9897C93.868 41.8916 93.7885 41.812 93.6904 41.812C93.5922 41.812 93.5127 41.8916 93.5127 41.9897C93.5127 42.0878 93.5922 42.1673 93.6904 42.1673Z" fill="#F4B178"/>
<path d="M94.7565 39.858C94.8546 39.858 94.9342 39.7785 94.9342 39.6804C94.9342 39.5822 94.8546 39.5027 94.7565 39.5027C94.6584 39.5027 94.5789 39.5822 94.5789 39.6804C94.5789 39.7785 94.6584 39.858 94.7565 39.858Z" fill="#F4B178"/>
<path d="M96.5331 40.7462C96.6313 40.7462 96.7108 40.6667 96.7108 40.5685C96.7108 40.4704 96.6313 40.3909 96.5331 40.3909C96.435 40.3909 96.3555 40.4704 96.3555 40.5685C96.3555 40.6667 96.435 40.7462 96.5331 40.7462Z" fill="#F4B178"/>
<path d="M95.1118 41.6346C95.2099 41.6346 95.2894 41.5551 95.2894 41.457C95.2894 41.3588 95.2099 41.2793 95.1118 41.2793C95.0136 41.2793 94.9341 41.3588 94.9341 41.457C94.9341 41.5551 95.0136 41.6346 95.1118 41.6346Z" fill="#F4B178"/>
<path d="M94.2233 38.2589C94.3214 38.2589 94.401 38.1794 94.401 38.0812C94.401 37.9831 94.3214 37.9036 94.2233 37.9036C94.1252 37.9036 94.0457 37.9831 94.0457 38.0812C94.0457 38.1794 94.1252 38.2589 94.2233 38.2589Z" fill="#F4B178"/>
<path d="M92.8019 38.6141C92.9001 38.6141 92.9796 38.5346 92.9796 38.4365C92.9796 38.3383 92.9001 38.2588 92.8019 38.2588C92.7038 38.2588 92.6243 38.3383 92.6243 38.4365C92.6243 38.5346 92.7038 38.6141 92.8019 38.6141Z" fill="#F4B178"/>
<path d="M91.2031 39.6803C91.3012 39.6803 91.3807 39.6007 91.3807 39.5026C91.3807 39.4045 91.3012 39.325 91.2031 39.325C91.1049 39.325 91.0254 39.4045 91.0254 39.5026C91.0254 39.6007 91.1049 39.6803 91.2031 39.6803Z" fill="#F4B178"/>
<path d="M91.3808 37.5482C91.4789 37.5482 91.5585 37.4687 91.5585 37.3705C91.5585 37.2724 91.4789 37.1929 91.3808 37.1929C91.2827 37.1929 91.2031 37.2724 91.2031 37.3705C91.2031 37.4687 91.2827 37.5482 91.3808 37.5482Z" fill="#F4B178"/>
<path d="M89.2487 37.3705C89.3468 37.3705 89.4264 37.2909 89.4264 37.1928C89.4264 37.0947 89.3468 37.0151 89.2487 37.0151C89.1506 37.0151 89.071 37.0947 89.071 37.1928C89.071 37.2909 89.1506 37.3705 89.2487 37.3705Z" fill="#F4B178"/>
</g>
<defs>
<clipPath id="clip0">
<rect width="315" height="58.9848" fill="white" transform="translate(26 26)"/>
</clipPath>
</defs>
</svg>
