<svg width="512" height="512" viewBox="0 0 512 512" fill="none" xmlns="http://www.w3.org/2000/svg">
<path d="M256.1 0C114.8 0 0 114.5 0 255.9C0 397.3 114.8 511.8 256.1 511.8C397.5 511.8 512 397.3 512 255.9C512 114.5 397.5 0 256.1 0ZM254.5 98.1C167.9 99 98.2 169.4 98.2 255.9C98.2 342.4 167.9 412.8 254.4 413.7V441.8C152.4 440.9 70.1 358.1 70.1 255.9C70.1 153.7 152.5 70.9 254.5 70V98.1ZM258.7 134.7C324.5 135.8 377.6 189.7 377.6 255.8C377.6 321.8 324.4 375.7 258.7 376.9V134.7ZM258.7 381C326.8 379.8 381.9 324.1 381.9 255.7C381.9 187.3 326.8 131.6 258.7 130.4V99.9C343.6 101.1 412.4 170.5 412.4 255.7C412.4 340.9 343.6 410.4 258.7 411.5V381ZM258.7 415.8C346 414.6 416.7 343.3 416.7 255.8C416.7 168.2 346 96.9 258.7 95.8V72C359 73.2 440.3 155.1 440.3 255.7C440.3 356.3 359 438.3 258.7 439.4V415.8ZM258.7 472.3V443.7C361.4 442.5 444.6 358.7 444.6 255.8C444.6 152.8 361.4 69.1 258.7 67.9V39.2C377.1 40.4 473.1 137 473.1 255.7C473.1 374.4 377.2 471.1 258.7 472.3Z" fill="#333333"/>
<path d="M264.2 330.1C263.3 331.6 263.8 333.6 265.4 334.4C266.9 335.3 268.9 334.8 269.7 333.2C270.6 331.7 270.1 329.7 268.5 328.9C267 328.1 265.1 328.6 264.2 330.1Z" fill="#333333"/>
<path d="M274.2 343.2C273.3 344.7 273.8 346.7 275.4 347.5C276.9 348.4 278.9 347.9 279.7 346.3C280.6 344.8 280.1 342.8 278.5 342C277 341.2 275.1 341.7 274.2 343.2Z" fill="#333333"/>
<path d="M287.2 320.7C286.5 321.9 286.9 323.5 288.1 324.2C289.3 324.9 290.9 324.5 291.6 323.3C292.3 322.1 291.9 320.5 290.7 319.8C289.5 319.1 287.9 319.5 287.2 320.7Z" fill="#333333"/>
<path d="M300 306.2C299.7 306.8 299.9 307.6 300.5 307.9C301.1 308.3 301.9 308 302.2 307.4C302.5 306.8 302.3 306 301.7 305.7C301.1 305.4 300.4 305.6 300 306.2Z" fill="#333333"/>
<path d="M316.4 303.2C315.9 304.1 316.2 305.3 317.1 305.8C318 306.3 319.2 306 319.7 305.1C320.2 304.2 319.9 303 319 302.5C318.1 301.9 316.9 302.3 316.4 303.2Z" fill="#333333"/>
<path d="M318.5 286.8C318 287.7 318.3 288.9 319.2 289.4C320.1 289.9 321.3 289.6 321.8 288.7C322.3 287.8 322 286.6 321.1 286.1C320.2 285.6 319 285.9 318.5 286.8Z" fill="#333333"/>
<path d="M322.1 260.3C321.8 260.9 322 261.7 322.6 262C323.2 262.3 324 262.1 324.3 261.5C324.7 260.9 324.4 260.1 323.8 259.8C323.2 259.5 322.4 259.7 322.1 260.3Z" fill="#333333"/>
<path d="M319.1 247.7C319.6 246.8 319.3 245.6 318.4 245.1C317.5 244.6 316.3 244.9 315.8 245.8C315.3 246.7 315.6 247.9 316.5 248.4C317.4 248.9 318.6 248.6 319.1 247.7Z" fill="#333333"/>
<path d="M301.1 208C300.2 209.5 300.7 211.5 302.3 212.3C303.8 213.2 305.8 212.7 306.6 211.1C307.5 209.6 307 207.6 305.4 206.8C303.9 205.9 302 206.5 301.1 208Z" fill="#333333"/>
<path d="M349.8 187C350.1 186.4 349.9 185.6 349.3 185.3C348.7 184.9 347.9 185.2 347.6 185.8C347.2 186.4 347.5 187.2 348.1 187.5C348.7 187.8 349.4 187.6 349.8 187Z" fill="#333333"/>
<path d="M394.7 205.6C395.4 204.4 395 202.8 393.8 202.1C392.6 201.4 391 201.8 390.3 203C389.6 204.2 390 205.8 391.2 206.5C392.4 207.3 394 206.8 394.7 205.6Z" fill="#333333"/>
<path d="M414.8 192.4C412.7 191.2 410 191.9 408.7 194C407.5 196.1 408.2 198.8 410.3 200.1C412.4 201.3 415.1 200.6 416.4 198.5C417.6 196.3 416.9 193.6 414.8 192.4Z" fill="#333333"/>
<path d="M429.2 211.7C429.7 210.8 429.4 209.6 428.5 209.1C427.6 208.6 426.4 208.9 425.9 209.8C425.4 210.7 425.7 211.9 426.6 212.4C427.5 212.9 428.7 212.6 429.2 211.7Z" fill="#333333"/>
<path d="M435.8 177.4C434.9 178.9 435.4 180.9 437 181.7C438.5 182.6 440.5 182.1 441.3 180.5C442.2 179 441.7 177 440.1 176.2C438.6 175.4 436.7 175.9 435.8 177.4Z" fill="#333333"/>
<path d="M417.1 149C416.2 150.5 416.7 152.5 418.3 153.3C419.8 154.2 421.8 153.7 422.6 152.1C423.5 150.6 423 148.6 421.4 147.8C419.9 147 418 147.5 417.1 149Z" fill="#333333"/>
<path d="M367.6 272.7C368.8 270.6 368.1 267.9 366 266.6C363.9 265.4 361.2 266.1 359.9 268.2C358.7 270.3 359.4 273 361.5 274.3C363.7 275.6 366.4 274.9 367.6 272.7Z" fill="#333333"/>
<path d="M388.8 246.2C389.2 245.6 388.9 244.8 388.3 244.5C387.7 244.1 386.9 244.4 386.6 245C386.3 245.6 386.5 246.4 387.1 246.7C387.7 247 388.5 246.8 388.8 246.2Z" fill="#333333"/>
<path d="M376.6 165.9C376.2 166.5 376.5 167.3 377.1 167.6C377.7 168 378.5 167.7 378.8 167.1C379.1 166.5 378.9 165.7 378.3 165.4C377.7 165.1 376.9 165.3 376.6 165.9Z" fill="#333333"/>
<path d="M395.8 114.8C395.3 115.7 395.6 116.9 396.5 117.4C397.4 117.9 398.6 117.6 399.1 116.7C399.6 115.8 399.3 114.6 398.4 114.1C397.5 113.6 396.4 113.9 395.8 114.8Z" fill="#333333"/>
<path d="M381 102.6C380.3 103.8 380.7 105.4 381.9 106.1C383.1 106.8 384.7 106.4 385.4 105.2C386.1 104 385.7 102.4 384.5 101.7C383.2 101 381.7 101.4 381 102.6Z" fill="#333333"/>
<path d="M369.9 121.8C369.4 122.7 369.7 123.9 370.6 124.4C371.5 124.9 372.7 124.6 373.2 123.7C373.7 122.8 373.4 121.6 372.5 121.1C371.6 120.6 370.4 120.9 369.9 121.8Z" fill="#333333"/>
<path d="M287.1 180.2C286.2 179.7 285 180 284.5 180.9C284 181.8 284.3 183 285.2 183.5C286.1 184 287.3 183.7 287.8 182.8C288.4 181.8 288 180.7 287.1 180.2Z" fill="#333333"/>
<path d="M308.2 439.7C306.9 440.3 306.3 441.8 306.9 443C307.5 444.3 309 444.9 310.2 444.3C311.5 443.7 312.1 442.2 311.5 441C310.9 439.7 309.4 439.1 308.2 439.7Z" fill="#333333"/>
<path d="M326.4 437.2C326.7 437.8 327.4 438.1 328.1 437.9C328.7 437.6 329 436.9 328.8 436.2C328.5 435.6 327.8 435.3 327.1 435.5C326.4 435.8 326.2 436.6 326.4 437.2Z" fill="#333333"/>
<path d="M342.1 442.8C341.1 443.2 340.7 444.3 341.1 445.3C341.5 446.3 342.6 446.7 343.6 446.3C344.6 445.9 345 444.8 344.6 443.8C344.1 442.8 343 442.4 342.1 442.8Z" fill="#333333"/>
<path d="M353.4 430.9C352.4 431.3 352 432.4 352.4 433.4C352.8 434.4 353.9 434.8 354.9 434.4C355.9 434 356.3 432.9 355.9 431.9C355.5 430.9 354.4 430.4 353.4 430.9Z" fill="#333333"/>
<path d="M371.3 413.3C371.6 413.9 372.3 414.2 373 414C373.6 413.7 373.9 413 373.7 412.3C373.4 411.7 372.7 411.4 372 411.7C371.3 411.9 371 412.7 371.3 413.3Z" fill="#333333"/>
<path d="M390.2 358.6C389.5 357 387.6 356.3 386 357C384.4 357.7 383.7 359.6 384.4 361.2C385.1 362.8 387 363.5 388.6 362.8C390.2 362.1 390.9 360.2 390.2 358.6Z" fill="#333333"/>
<path d="M436 368.3C436.3 368.9 437 369.2 437.7 369C438.3 368.7 438.6 368 438.3 367.3C438 366.7 437.3 366.4 436.6 366.6C436 366.9 435.7 367.6 436 368.3Z" fill="#333333"/>
<path d="M388.7 325.3C387.7 325.7 387.3 326.8 387.7 327.8C388.1 328.8 389.2 329.2 390.2 328.8C391.2 328.4 391.6 327.3 391.2 326.3C390.8 325.3 389.7 324.9 388.7 325.3Z" fill="#333333"/>
<path d="M330 109.7C329.3 110.9 329.7 112.5 330.9 113.2C332.1 113.9 333.7 113.5 334.4 112.3C335.1 111.1 334.7 109.5 333.5 108.8C332.2 108.1 330.7 108.5 330 109.7Z" fill="#333333"/>
<path d="M343.3 81.6C342.8 82.5 343.1 83.7 344 84.2C344.9 84.7 346.1 84.4 346.6 83.5C347.1 82.6 346.8 81.4 345.9 80.9C345 80.4 343.8 80.7 343.3 81.6Z" fill="#333333"/>
<path d="M365.6 93.7C365.2 94.3 365.5 95.1 366.1 95.4C366.7 95.7 367.5 95.5 367.8 94.9C368.1 94.3 367.9 93.5 367.3 93.2C366.7 92.9 365.9 93.1 365.6 93.7Z" fill="#333333"/>
<path d="M346.8 103.4C346.5 104 346.7 104.8 347.3 105.1C347.9 105.4 348.7 105.2 349 104.6C349.4 104 349.1 103.2 348.5 102.9C348 102.6 347.2 102.8 346.8 103.4Z" fill="#333333"/>
<path d="M336.8 62.4C336.1 63.6 336.5 65.2 337.7 65.9C338.9 66.6 340.5 66.2 341.2 65C341.9 63.8 341.5 62.2 340.3 61.5C339 60.8 337.5 61.2 336.8 62.4Z" fill="#333333"/>
<path d="M319.5 67.1C319.2 67.7 319.4 68.5 320 68.8C320.6 69.1 321.4 68.9 321.7 68.3C322.1 67.7 321.8 66.9 321.2 66.6C320.6 66.3 319.8 66.5 319.5 67.1Z" fill="#333333"/>
<path d="M300.9 79C300.4 79.9 300.7 81.1 301.6 81.6C302.5 82.1 303.7 81.8 304.2 80.9C304.7 80 304.4 78.8 303.5 78.3C302.6 77.8 301.4 78.1 300.9 79Z" fill="#333333"/>
<path d="M301 53.5C300.3 54.7 300.7 56.3 301.9 57C303.1 57.7 304.7 57.3 305.4 56.1C306.1 54.9 305.7 53.3 304.5 52.6C303.2 51.8 301.7 52.3 301 53.5Z" fill="#333333"/>
<path d="M276.9 52C276.4 52.9 276.7 54.1 277.6 54.6C278.5 55.1 279.7 54.8 280.2 53.9C280.7 53 280.4 51.8 279.5 51.3C278.6 50.8 277.5 51.1 276.9 52Z" fill="#333333"/>
</svg>
