<svg width="512" height="512" viewBox="0 0 512 512" fill="none" xmlns="http://www.w3.org/2000/svg">
<g clip-path="url(#clip0)">
<g clip-path="url(#clip1)">
<path d="M256.1 413.8C343.306 413.8 414 343.106 414 255.9C414 168.694 343.306 98 256.1 98C168.894 98 98.2 168.694 98.2 255.9C98.2 343.106 168.894 413.8 256.1 413.8Z" fill="white"/>
<path d="M256.1 0C114.8 0 0 114.5 0 255.9C0 397.3 114.8 511.8 256.1 511.8C397.5 511.8 512 397.3 512 255.9C512 114.5 397.5 0 256.1 0ZM256.1 441.9C153.4 441.9 70.1 358.7 70.1 255.9C70.1 153.1 153.3 69.9 256.1 69.9C358.8 69.9 442.1 153.1 442.1 255.9C442.1 358.7 358.9 441.9 256.1 441.9Z" fill="#333333"/>
<path d="M256.1 413.8C343.306 413.8 414 343.106 414 255.9C414 168.694 343.306 98 256.1 98C168.894 98 98.2 168.694 98.2 255.9C98.2 343.106 168.894 413.8 256.1 413.8Z" fill="#333333"/>
<path d="M256.1 38.4001C376.9 38.4001 474.8 136.3 474.8 257.1C474.8 377.9 376.9 475.8 256.1 475.8" fill="#EBD7C1"/>
<path d="M256.1 38.4001C376.9 38.4001 474.8 136.3 474.8 257.1C474.8 377.9 376.9 475.8 256.1 475.8" stroke="white" stroke-width="1.2863" stroke-miterlimit="10"/>
<path d="M256.6 37.1001C377.4 37.1001 475.3 135 475.3 255.8C475.3 376.6 377.4 474.5 256.6 474.5" fill="#EBD7C1"/>
<path d="M256.6 69.8999C359.3 69.8999 442.5 153.1 442.5 255.8C442.5 358.5 359.3 441.7 256.6 441.7" fill="#EAB78E"/>
<path d="M256.6 440.5C256.3 440.6 256.5 441 257.3 440.9L257.9 440.3L256.6 440.5Z" fill="#EEDCC9"/>
<path d="M262.3 441.2C263.3 440.9 264.4 440.4 263.7 439.9C262.7 440.5 262.5 440.3 261.5 440.9C260.7 441 260 440.8 260.2 440.6C259.9 440.8 258.9 440.5 258.4 440.9C259.5 441.3 260.9 441.2 262.3 440.8C262.7 441 262.4 441.1 262.3 441.2Z" fill="#EEDCC9"/>
<path d="M342.1 421.5L341.6 421.7C341.8 421.6 342 421.6 342.1 421.5Z" fill="#EEDCC9"/>
<path d="M384.2 392.1C383.9 392.4 383.9 392.6 383.9 392.6C384.1 392.3 384.2 392.1 384.2 392.1Z" fill="#EEDCC9"/>
<path d="M391 386.4L390.6 386.8C390.8 386.7 390.9 386.5 391 386.4Z" fill="#EEDCC9"/>
<path d="M342.1 421.5L343.4 421.1C343.4 420.9 342.7 421.3 342.1 421.5Z" fill="#EEDCC9"/>
<path d="M273.6 439.4C273.4 439.4 273.2 439.5 272.9 439.6L273.6 439.4Z" fill="#EEDCC9"/>
<path d="M321.5 431L321.1 431.2L320.8 431.5L321.5 431Z" fill="#EEDCC9"/>
<path d="M304.9 436.4C305.3 436.3 305.3 435.8 305.4 435.6C305.2 435.8 305 436 304.6 436.1C304.6 436.1 304.7 436.3 304.9 436.4Z" fill="#EEDCC9"/>
<path d="M277.6 440.8L277.1 440.9L277.6 440.8Z" fill="#EEDCC9"/>
<path d="M333.1 426.5L333.3 426.6C333.3 426.5 333.2 426.5 333.1 426.5Z" fill="#EEDCC9"/>
<path d="M276.4 73.2C276.4 73.1 276.3 73.1 276.4 73.2V73.2Z" fill="#EEDCC9"/>
<path d="M256.6 69.8L256.9 69.7V69.5L256.6 69.8Z" fill="#EEDCC9"/>
<path d="M402.2 374.8C402 375.2 402.1 375 402.2 374.8V374.8Z" fill="#EEDCC9"/>
<path d="M443.3 235.8C443.1 237.5 442.4 233.2 442.3 235.7C442.4 235.4 443.3 237.9 443.3 235.8Z" fill="#EEDCC9"/>
<path d="M422.6 343.5C422.5 343.5 422.4 343.6 422.3 343.7C422.3 343.8 422.4 343.8 422.6 343.5Z" fill="#EEDCC9"/>
<path d="M407.2 366.6L407.7 366.1C407.4 366.4 407.3 366.5 407.2 366.6Z" fill="#EEDCC9"/>
<path d="M428.3 330.3C428.5 330 428.6 329.9 428.8 329.4L428.7 329.5C428.6 329.7 428.5 329.9 428.3 330.3Z" fill="#EEDCC9"/>
<path d="M433.6 316.3C433.5 316.4 433.4 316.5 433.4 316.5L433.3 317L433.6 316.3Z" fill="#EEDCC9"/>
<path d="M319.9 83.2001C319.6 83.0001 319.5 82.8001 319.4 82.6001C319.5 83.0001 317.4 82.4001 319.9 83.2001Z" fill="#EEDCC9"/>
<path d="M273.6 439.6C273.7 439.5 273.8 439.4 274 439.4H273.5C273.5 439.4 273.5 439.6 273.6 439.6Z" fill="#EEDCC9"/>
<path d="M425.2 328.3C425.6 327.6 425.9 326.9 426.2 326.2C425.9 326.8 425.6 327.5 425.2 328.3Z" fill="#EEDCC9"/>
<path d="M403.4 145.2L403 144.8C403.2 145 403.3 145.1 403.4 145.2Z" fill="#EEDCC9"/>
<path d="M428.5 319.6C428.8 319.3 429 318.9 429.3 318.5V318.2L428.5 319.6Z" fill="#EEDCC9"/>
<path d="M352.5 98.1999C352.1 97.9999 351.8 97.7999 351.6 97.6999C351.8 97.7999 352 97.8999 352.5 98.1999ZM356.3 100.5C355.8 100.2 355.3 99.8999 354.7 99.4999C354.7 99.2999 354.9 99.1999 355.3 99.4999C354.9 99.3999 355.8 99.9999 356.3 100.5ZM349.9 92.8999C350.5 93.1999 350.7 93.3999 350.7 93.4999C350.4 93.3999 350.1 93.1999 349.6 92.8999H349.5C349.7 92.8999 349.8 92.7999 349.9 92.8999Z" fill="#EEDCC9"/>
<path d="M348.5 92.7001L348.3 92.6001L348.6 92.9001H348.9L348.5 92.7001Z" fill="#EEDCC9"/>
<path d="M400.3 141.4H400.4L400.1 141.1L400.3 141.4Z" fill="#EEDCC9"/>
<path d="M308.6 433.1L307.1 433.3C307.9 433.2 308.3 433.1 308.6 433.1Z" fill="#EEDCC9"/>
<path d="M300.8 434.8C300.7 434.9 300.7 435 300.7 435L300.8 434.8Z" fill="#EEDCC9"/>
<path d="M404.4 365.2C404.4 365.2 404.5 365.1 404.6 364.9C404.9 364.3 404.6 364.7 404.4 365.2Z" fill="#EEDCC9"/>
<path d="M379.6 393.9C379.9 393.5 380.2 393.2 380.4 392.9C379.8 393.3 379.4 393.7 379.6 393.9Z" fill="#EEDCC9"/>
<path d="M425.1 328.5L425.2 328.3L425.1 328.5Z" fill="#EEDCC9"/>
<path d="M381.7 391.7C381.1 392.1 380.7 392.5 380.4 392.9C380.8 392.6 381.3 392.1 381.7 391.7Z" fill="#EEDCC9"/>
<path d="M266 439.7L265.6 439.8C265.8 439.8 266 439.7 266 439.7Z" fill="#EEDCC9"/>
<path d="M264.7 440L265.6 439.8C265.3 439.8 264.9 439.8 264.7 440Z" fill="#EEDCC9"/>
<path d="M277 439.2L277.1 439L277 439.2Z" fill="#EEDCC9"/>
<path d="M280.2 438.7C279.4 438.8 278.2 438.6 277.2 438.9L277.1 439C277.6 438.7 279.5 439.1 280.2 438.7Z" fill="#EEDCC9"/>
<path d="M294 438.7L291.3 439C291.8 439.1 292.5 439.2 291.2 439.5C294.7 439.4 290.4 439.1 294 438.7Z" fill="#EEDCC9"/>
<path d="M302.2 436.8C300.8 437.2 302.3 437 302.2 437.2C303.1 436.8 303.3 436.7 302.2 436.8Z" fill="#EEDCC9"/>
<path d="M358.3 412.5L358.4 412.9C359.3 412.3 358.3 412.8 358.3 412.5Z" fill="#EEDCC9"/>
<path d="M366.5 404L365.5 404.4L365.3 405L366.5 404Z" fill="#EEDCC9"/>
<path d="M373.9 402.2L373.5 402.6L375 401.3L373.9 402.2Z" fill="#EEDCC9"/>
<path d="M433.1 318.9L432.5 319C432.3 319.8 432.8 320.2 433.1 318.9Z" fill="#EEDCC9"/>
<path d="M442.6 275.5C443 275.1 443.2 273.8 443 273C442.9 273.8 442.7 274.8 442.6 275.5Z" fill="#EEDCC9"/>
<path d="M410.7 148.4L411.4 149L410.2 147.7L410.7 148.4Z" fill="#EEDCC9"/>
<path d="M256.6 97.8C343.9 97.8 414.6 168.5 414.6 255.8C414.6 343.1 343.9 413.8 256.6 413.8" fill="#E09556"/>
<path d="M256.6 412.6C256.3 412.7 256.5 413.1 257.2 413L257.7 412.4L256.6 412.6Z" fill="#EDC09C"/>
<path d="M261.4 413.4C262.2 413.1 263.2 412.6 262.6 412.1C261.8 412.7 261.6 412.5 260.7 413.1C260 413.2 259.4 413 259.6 412.8C259.3 413 258.5 412.7 258.1 413.1C259 413.5 260.2 413.4 261.5 413C261.7 413.1 261.5 413.3 261.4 413.4Z" fill="#EDC09C"/>
<path d="M329.3 396.8L328.9 396.9C329.1 396.8 329.3 396.8 329.3 396.8Z" fill="#EDC09C"/>
<path d="M365.2 371.8C365 372 364.9 372.2 364.9 372.2C365.1 371.9 365.2 371.8 365.2 371.8Z" fill="#EDC09C"/>
<path d="M371 367L370.7 367.3C370.8 367.2 371 367.1 371 367Z" fill="#EDC09C"/>
<path d="M329.3 396.8L330.4 396.4C330.5 396.2 329.9 396.5 329.3 396.8Z" fill="#EDC09C"/>
<path d="M271 411.6L270.4 411.8L271 411.7V411.6Z" fill="#EDC09C"/>
<path d="M311.8 404.9L311.5 405C311.5 405 311.4 405.2 311.3 405.3L311.8 404.9Z" fill="#EDC09C"/>
<path d="M297.7 409.5C298 409.4 298 409 298.1 408.7C298 408.9 297.7 409.1 297.5 409.2C297.5 409.2 297.5 409.4 297.7 409.5Z" fill="#EDC09C"/>
<path d="M274.5 413.1L274.1 413.2L274.5 413.1Z" fill="#EDC09C"/>
<path d="M321.7 401L321.9 401.1L321.7 401Z" fill="#EDC09C"/>
<path d="M273.4 100.9C273.4 100.8 273.3 100.9 273.4 100.9V100.9Z" fill="#EDC09C"/>
<path d="M256.6 97.6001H256.8L256.9 97.4001L256.6 97.6001Z" fill="#EDC09C"/>
<path d="M380.7 357.1C380.4 357.5 380.6 357.3 380.7 357.1V357.1Z" fill="#EDC09C"/>
<path d="M415.6 238.7C415.4 240.2 414.7 236.5 414.6 238.6C414.7 238.4 415.6 240.5 415.6 238.7Z" fill="#EDC09C"/>
<path d="M398 330.5C398 330.5 397.8 330.6 397.7 330.7C397.7 330.7 397.8 330.7 398 330.5Z" fill="#EDC09C"/>
<path d="M384.8 350.1L385.2 349.7C384.9 349.9 384.8 350.1 384.8 350.1Z" fill="#EDC09C"/>
<path d="M402.7 319.2C402.9 318.9 403 318.9 403.1 318.4L403 318.5C403 318.7 402.9 318.9 402.7 319.2Z" fill="#EDC09C"/>
<path d="M407.2 307.3L407.1 307.5L407 307.8L407.2 307.3Z" fill="#EDC09C"/>
<path d="M310.3 109.4C310.1 109.2 310 109 309.9 108.8C309.9 109.2 308.2 108.7 310.3 109.4Z" fill="#EDC09C"/>
<path d="M271 411.9C271.1 411.8 271.2 411.7 271.4 411.7H271V411.9Z" fill="#EDC09C"/>
<path d="M399.6 317.3C399.9 316.7 400.2 316.1 400.4 315.5C400.1 316.1 399.9 316.7 399.6 317.3Z" fill="#EDC09C"/>
<path d="M381.2 162L380.9 161.7C381 161.8 381.1 161.9 381.2 162Z" fill="#EDC09C"/>
<path d="M402.4 309.9C402.7 309.6 402.9 309.3 403.1 309V308.7L402.4 309.9Z" fill="#EDC09C"/>
<path d="M338 122C337.7 121.8 337.4 121.7 337.2 121.6C337.4 121.6 337.6 121.8 338 122ZM341.2 123.9C340.8 123.6 340.3 123.4 339.8 123C339.8 122.8 340 122.7 340.3 122.9C340.1 123 340.8 123.5 341.2 123.9ZM336.1 117C336.6 117.3 336.8 117.4 336.8 117.6C336.6 117.5 336.3 117.3 335.9 117.1H335.8C335.8 117.1 336 117 336.1 117Z" fill="#EDC09C"/>
<path d="M334.9 117L334.7 116.9C334.8 117 335 117.2 335 117.2H335.3C335 117.1 334.9 117 334.9 117Z" fill="#EDC09C"/>
<path d="M378.5 158.8L378.6 158.7L378.3 158.5L378.5 158.8Z" fill="#EDC09C"/>
<path d="M300.8 406.3L299.5 406.5C300.2 406.4 300.5 406.3 300.8 406.3Z" fill="#EDC09C"/>
<path d="M294.1 407.8C294 407.9 294 408 294 408L294.1 407.8Z" fill="#EDC09C"/>
<path d="M382 348.6C382 348.6 382.1 348.5 382.1 348.4C382.4 347.8 382.2 348.2 382 348.6Z" fill="#EDC09C"/>
<path d="M361.1 373.1C361.3 372.8 361.6 372.5 361.7 372.2C361.3 372.6 360.9 372.9 361.1 373.1Z" fill="#EDC09C"/>
<path d="M399.5 317.5L399.6 317.3L399.5 317.5Z" fill="#EDC09C"/>
<path d="M362.8 371.2C362.3 371.5 362 371.9 361.7 372.2C362.1 371.9 362.5 371.6 362.8 371.2Z" fill="#EDC09C"/>
<path d="M264.6 411.9L264.2 412C264.4 412 264.6 411.9 264.6 411.9Z" fill="#EDC09C"/>
<path d="M263.5 412.2L264.3 412C263.9 412 263.6 412 263.5 412.2Z" fill="#EDC09C"/>
<path d="M273.9 411.5L274 411.3L273.9 411.5Z" fill="#EDC09C"/>
<path d="M276.6 411C275.9 411.1 274.9 410.9 274 411.1L273.9 411.2C274.4 411 276.1 411.4 276.6 411Z" fill="#EDC09C"/>
<path d="M288.4 411.3L286.1 411.5C286.5 411.6 287.1 411.8 286.1 412C289 412.1 285.3 411.7 288.4 411.3Z" fill="#EDC09C"/>
<path d="M295.4 409.8C294.2 410.2 295.5 410 295.4 410.2C296.2 409.8 296.4 409.7 295.4 409.8Z" fill="#EDC09C"/>
<path d="M343.1 389.1L343.2 389.5C344 389 343.1 389.4 343.1 389.1Z" fill="#EDC09C"/>
<path d="M349.9 381.6L349 381.9L348.9 382.5L349.9 381.6Z" fill="#EDC09C"/>
<path d="M356.5 380.5L356.2 380.8L357.4 379.7L356.5 380.5Z" fill="#EDC09C"/>
<path d="M406.8 309.5L406.2 309.6C406.1 310.3 406.6 310.6 406.8 309.5Z" fill="#EDC09C"/>
<path d="M414.9 272.5C415.3 272.1 415.4 271.1 415.2 270.4C415.1 271 415 271.9 414.9 272.5Z" fill="#EDC09C"/>
<path d="M387.8 164.3L388.4 164.8L387.4 163.7L387.8 164.3Z" fill="#EDC09C"/>
<path d="M256.6 132.5C324.7 132.5 379.8 187.7 379.8 255.7C379.8 323.7 324.7 379 256.6 379" fill="#CA6F21"/>
<path d="M256.6 377.9C256.4 378 256.5 378.4 257.1 378.3L257.5 377.7L256.6 377.9Z" fill="#E4A26B"/>
<path d="M260.4 378.7C261.1 378.4 261.8 377.9 261.3 377.4C260.7 378 260.5 377.7 259.8 378.4C259.2 378.5 258.8 378.3 258.9 378.1C258.7 378.2 258 378 257.7 378.4C258.4 378.8 259.4 378.8 260.3 378.4C260.6 378.4 260.4 378.6 260.4 378.7Z" fill="#E4A26B"/>
<path d="M313.4 365.9L313 366C313.2 365.9 313.4 365.9 313.4 365.9Z" fill="#E4A26B"/>
<path d="M341.4 346.4C341.2 346.6 341.2 346.7 341.2 346.7C341.4 346.6 341.4 346.4 341.4 346.4Z" fill="#E4A26B"/>
<path d="M346.1 342.8L345.8 343C346 342.9 346.1 342.8 346.1 342.8Z" fill="#E4A26B"/>
<path d="M313.4 365.9L314.3 365.7C314.3 365.5 313.8 365.7 313.4 365.9Z" fill="#E4A26B"/>
<path d="M267.8 377L267.3 377.2L267.8 377.1V377Z" fill="#E4A26B"/>
<path d="M299.8 372.3L299.5 372.4C299.5 372.4 299.4 372.6 299.4 372.7L299.8 372.3Z" fill="#E4A26B"/>
<path d="M288.7 375.9C289 375.9 288.9 375.4 289 375.2C288.9 375.4 288.7 375.6 288.5 375.6C288.5 375.6 288.6 375.8 288.7 375.9Z" fill="#E4A26B"/>
<path d="M270.5 378.6L270.2 378.7C270.2 378.7 270.4 378.7 270.5 378.6Z" fill="#E4A26B"/>
<path d="M307.5 369.3L307.7 369.4L307.5 369.3Z" fill="#E4A26B"/>
<path d="M256.6 132.4H256.8V132.1L256.6 132.4Z" fill="#E4A26B"/>
<path d="M353.8 335.1C353.6 335.4 353.7 335.3 353.8 335.1V335.1Z" fill="#E4A26B"/>
<path d="M381 242.4C380.8 243.5 380.2 240.7 380 242.4C380.2 242.2 381 243.8 381 242.4Z" fill="#E4A26B"/>
<path d="M268.1 377.1H268.6C268.3 377 268.4 377 268.1 377.1Z" fill="#E4A26B"/>
<path d="M367.3 314.3C367.3 314.3 367.1 314.4 367 314.4C367 314.4 367.1 314.4 367.3 314.3Z" fill="#E4A26B"/>
<path d="M356.8 329.5L357.1 329.2C356.9 329.4 356.8 329.5 356.8 329.5Z" fill="#E4A26B"/>
<path d="M370.8 305.3C370.9 305.1 371 305 371.1 304.7L371 304.8C371.1 305 371 305.1 370.8 305.3Z" fill="#E4A26B"/>
<path d="M374.4 296L374.2 296.1C374.2 296.2 374.1 296.4 374.1 296.4L374.4 296Z" fill="#E4A26B"/>
<path d="M298.3 142C298.1 141.8 298.1 141.6 298 141.5C298.1 141.8 296.7 141.4 298.3 142Z" fill="#E4A26B"/>
<path d="M267.8 377.3C267.8 377.2 267.9 377.1 268.1 377.1C268.1 377.1 267.9 377.1 267.8 377.1V377.3Z" fill="#E4A26B"/>
<path d="M367.7 303.5C368 303.1 368.2 302.6 368.4 302.1C368 302.7 367.9 303.1 367.7 303.5Z" fill="#E4A26B"/>
<path d="M353.4 182.8L353.1 182.5C353.3 182.7 353.4 182.8 353.4 182.8Z" fill="#E4A26B"/>
<path d="M369.8 297.8C370 297.6 370.2 297.4 370.4 297.1L370.3 296.9L369.8 297.8Z" fill="#E4A26B"/>
<path d="M320 151.6C319.7 151.5 319.5 151.3 319.4 151.3C319.5 151.4 319.6 151.5 320 151.6ZM322.5 153.1L321.4 152.4C321.4 152.2 321.6 152.1 321.8 152.3C321.6 152.4 322.2 152.8 322.5 153.1ZM318.8 147.2C319.2 147.4 319.3 147.5 319.3 147.7C319.1 147.6 318.9 147.5 318.6 147.3H318.5C318.5 147.3 318.7 147.2 318.8 147.2Z" fill="#E4A26B"/>
<path d="M317.8 147.3L317.6 147.2C317.7 147.3 317.8 147.4 317.8 147.4H318L317.8 147.3Z" fill="#E4A26B"/>
<path d="M351.3 180.4L351.4 180.3L351.2 180.2L351.3 180.4Z" fill="#E4A26B"/>
<path d="M291 373L290 373.1C290.5 373 290.8 373 291 373Z" fill="#E4A26B"/>
<path d="M285.8 374.1L285.7 374.3L285.8 374.1Z" fill="#E4A26B"/>
<path d="M354.1 328L354.2 327.8C354.4 327.3 354.2 327.6 354.1 328Z" fill="#E4A26B"/>
<path d="M338 347.2C338.2 346.9 338.3 346.7 338.5 346.5C338.1 346.7 337.8 347 338 347.2Z" fill="#E4A26B"/>
<path d="M367.6 303.7L367.7 303.5L367.6 303.7Z" fill="#E4A26B"/>
<path d="M339.3 345.7C338.9 345.9 338.6 346.2 338.4 346.5C338.7 346.2 339.1 346 339.3 345.7Z" fill="#E4A26B"/>
<path d="M263.1 377.2H262.8V377.3L263.1 377.2Z" fill="#E4A26B"/>
<path d="M262.8 377.3L262.5 377.4C262.7 377.3 262.8 377.3 262.8 377.3Z" fill="#E4A26B"/>
<path d="M261.9 377.5L262.5 377.4C262.3 377.4 262.1 377.3 261.9 377.5Z" fill="#E4A26B"/>
<path d="M270.1 377L270.2 376.8L270.1 377Z" fill="#E4A26B"/>
<path d="M272.2 376.6C271.7 376.6 270.9 376.4 270.2 376.6L270.1 376.7C270.5 376.5 271.8 376.9 272.2 376.6Z" fill="#E4A26B"/>
<path d="M281.4 377.3L279.6 377.4C279.9 377.5 280.4 377.7 279.6 377.9C282 378.1 279 377.6 281.4 377.3Z" fill="#E4A26B"/>
<path d="M286.9 376.2C286 376.5 287 376.4 286.9 376.6C287.6 376.2 287.7 376.1 286.9 376.2Z" fill="#E4A26B"/>
<path d="M324.2 360L324.3 360.4C325 359.9 324.3 360.2 324.2 360Z" fill="#E4A26B"/>
<path d="M329.3 353.7L328.5 353.9V354.5L329.3 353.7Z" fill="#E4A26B"/>
<path d="M334.8 353.4L334.5 353.6L335.5 352.7L334.8 353.4Z" fill="#E4A26B"/>
<path d="M374.1 297.8H373.5C373.5 298.4 374 298.7 374.1 297.8Z" fill="#E4A26B"/>
<path d="M380.3 268.9C380.6 268.6 380.8 267.8 380.6 267.3C380.6 267.7 380.4 268.4 380.3 268.9Z" fill="#E4A26B"/>
<path d="M359.3 184.2L359.8 184.5L359 183.7L359.3 184.2Z" fill="#E4A26B"/>
<path d="M267 334.9C268.767 334.9 270.2 333.467 270.2 331.7C270.2 329.933 268.767 328.5 267 328.5C265.233 328.5 263.8 329.933 263.8 331.7C263.8 333.467 265.233 334.9 267 334.9Z" fill="#F8D09F"/>
<path d="M277 348C278.767 348 280.2 346.567 280.2 344.8C280.2 343.033 278.767 341.6 277 341.6C275.233 341.6 273.8 343.033 273.8 344.8C273.8 346.567 275.233 348 277 348Z" fill="#F4B178"/>
<path d="M289.4 324.5C290.781 324.5 291.9 323.381 291.9 322C291.9 320.619 290.781 319.5 289.4 319.5C288.019 319.5 286.9 320.619 286.9 322C286.9 323.381 288.019 324.5 289.4 324.5Z" fill="#F4B178"/>
<path d="M301.1 308.1C301.818 308.1 302.4 307.518 302.4 306.8C302.4 306.082 301.818 305.5 301.1 305.5C300.382 305.5 299.8 306.082 299.8 306.8C299.8 307.518 300.382 308.1 301.1 308.1Z" fill="#F4B178"/>
<path d="M318 306C319.049 306 319.9 305.15 319.9 304.1C319.9 303.051 319.049 302.2 318 302.2C316.951 302.2 316.1 303.051 316.1 304.1C316.1 305.15 316.951 306 318 306Z" fill="#F4B178"/>
<path d="M320.1 289.7C321.149 289.7 322 288.849 322 287.8C322 286.751 321.149 285.9 320.1 285.9C319.051 285.9 318.2 286.751 318.2 287.8C318.2 288.849 319.051 289.7 320.1 289.7Z" fill="#F4B178"/>
<path d="M323.2 262.3C323.918 262.3 324.5 261.718 324.5 261C324.5 260.282 323.918 259.7 323.2 259.7C322.482 259.7 321.9 260.282 321.9 261C321.9 261.718 322.482 262.3 323.2 262.3Z" fill="#F4B178"/>
<path d="M317.5 248.6C318.549 248.6 319.4 247.749 319.4 246.7C319.4 245.651 318.549 244.8 317.5 244.8C316.451 244.8 315.6 245.651 315.6 246.7C315.6 247.749 316.451 248.6 317.5 248.6Z" fill="#F4B178"/>
<path d="M303.8 212.8C305.567 212.8 307 211.367 307 209.6C307 207.833 305.567 206.4 303.8 206.4C302.033 206.4 300.6 207.833 300.6 209.6C300.6 211.367 302.033 212.8 303.8 212.8Z" fill="#F4B178"/>
<path d="M348.7 187.7C349.418 187.7 350 187.118 350 186.4C350 185.682 349.418 185.1 348.7 185.1C347.982 185.1 347.4 185.682 347.4 186.4C347.4 187.118 347.982 187.7 348.7 187.7Z" fill="#F4B178"/>
<path d="M392.5 206.9C393.881 206.9 395 205.781 395 204.4C395 203.019 393.881 201.9 392.5 201.9C391.119 201.9 390 203.019 390 204.4C390 205.781 391.119 206.9 392.5 206.9Z" fill="#F4B178"/>
<path d="M412.5 200.6C414.93 200.6 416.9 198.63 416.9 196.2C416.9 193.77 414.93 191.8 412.5 191.8C410.07 191.8 408.1 193.77 408.1 196.2C408.1 198.63 410.07 200.6 412.5 200.6Z" fill="#F4B178"/>
<path d="M427.6 212.6C428.649 212.6 429.5 211.749 429.5 210.7C429.5 209.651 428.649 208.8 427.6 208.8C426.551 208.8 425.7 209.651 425.7 210.7C425.7 211.749 426.551 212.6 427.6 212.6Z" fill="#F4B178"/>
<path d="M438.6 182.2C440.367 182.2 441.8 180.767 441.8 179C441.8 177.233 440.367 175.8 438.6 175.8C436.833 175.8 435.4 177.233 435.4 179C435.4 180.767 436.833 182.2 438.6 182.2Z" fill="#F4B178"/>
<path d="M419.8 153.8C421.567 153.8 423 152.367 423 150.6C423 148.833 421.567 147.4 419.8 147.4C418.033 147.4 416.6 148.833 416.6 150.6C416.6 152.367 418.033 153.8 419.8 153.8Z" fill="#F4B178"/>
<path d="M363.8 274.9C366.23 274.9 368.2 272.93 368.2 270.5C368.2 268.07 366.23 266.1 363.8 266.1C361.37 266.1 359.4 268.07 359.4 270.5C359.4 272.93 361.37 274.9 363.8 274.9Z" fill="#F4B178"/>
<path d="M387.7 246.8C388.418 246.8 389 246.218 389 245.5C389 244.782 388.418 244.2 387.7 244.2C386.982 244.2 386.4 244.782 386.4 245.5C386.4 246.218 386.982 246.8 387.7 246.8Z" fill="#F4B178"/>
<path d="M377.7 167.9C378.418 167.9 379 167.318 379 166.6C379 165.882 378.418 165.3 377.7 165.3C376.982 165.3 376.4 165.882 376.4 166.6C376.4 167.318 376.982 167.9 377.7 167.9Z" fill="#F4B178"/>
<path d="M397.5 117.7C398.549 117.7 399.4 116.849 399.4 115.8C399.4 114.751 398.549 113.9 397.5 113.9C396.451 113.9 395.6 114.751 395.6 115.8C395.6 116.849 396.451 117.7 397.5 117.7Z" fill="#F4B178"/>
<path d="M383.2 106.3C384.581 106.3 385.7 105.181 385.7 103.8C385.7 102.419 384.581 101.3 383.2 101.3C381.819 101.3 380.7 102.419 380.7 103.8C380.7 105.181 381.819 106.3 383.2 106.3Z" fill="#F4B178"/>
<path d="M371.5 124.6C372.549 124.6 373.4 123.749 373.4 122.7C373.4 121.651 372.549 120.8 371.5 120.8C370.451 120.8 369.6 121.651 369.6 122.7C369.6 123.749 370.451 124.6 371.5 124.6Z" fill="#F4B178"/>
<path d="M286.2 183.7C287.249 183.7 288.1 182.849 288.1 181.8C288.1 180.751 287.249 179.9 286.2 179.9C285.151 179.9 284.3 180.751 284.3 181.8C284.3 182.849 285.151 183.7 286.2 183.7Z" fill="#F4B178"/>
<path d="M309.2 444.5C310.581 444.5 311.7 443.381 311.7 442C311.7 440.619 310.581 439.5 309.2 439.5C307.819 439.5 306.7 440.619 306.7 442C306.7 443.381 307.819 444.5 309.2 444.5Z" fill="#F4B178"/>
<path d="M327.6 438C328.318 438 328.9 437.418 328.9 436.7C328.9 435.982 328.318 435.4 327.6 435.4C326.882 435.4 326.3 435.982 326.3 436.7C326.3 437.418 326.882 438 327.6 438Z" fill="#F4B178"/>
<path d="M342.8 446.4C343.849 446.4 344.7 445.549 344.7 444.5C344.7 443.451 343.849 442.6 342.8 442.6C341.751 442.6 340.9 443.451 340.9 444.5C340.9 445.549 341.751 446.4 342.8 446.4Z" fill="#F4B178"/>
<path d="M354.2 434.5C355.249 434.5 356.1 433.65 356.1 432.6C356.1 431.551 355.249 430.7 354.2 430.7C353.151 430.7 352.3 431.551 352.3 432.6C352.3 433.65 353.151 434.5 354.2 434.5Z" fill="#F4B178"/>
<path d="M372.5 414.1C373.218 414.1 373.8 413.518 373.8 412.8C373.8 412.082 373.218 411.5 372.5 411.5C371.782 411.5 371.2 412.082 371.2 412.8C371.2 413.518 371.782 414.1 372.5 414.1Z" fill="#F4B178"/>
<path d="M376.3 399.8C377.349 399.8 378.2 398.949 378.2 397.9C378.2 396.851 377.349 396 376.3 396C375.251 396 374.4 396.851 374.4 397.9C374.4 398.949 375.251 399.8 376.3 399.8Z" fill="#F4B178"/>
<path d="M387.3 363.1C389.067 363.1 390.5 361.667 390.5 359.9C390.5 358.133 389.067 356.7 387.3 356.7C385.533 356.7 384.1 358.133 384.1 359.9C384.1 361.667 385.533 363.1 387.3 363.1Z" fill="#F4B178"/>
<path d="M437.2 369C437.918 369 438.5 368.418 438.5 367.7C438.5 366.982 437.918 366.4 437.2 366.4C436.482 366.4 435.9 366.982 435.9 367.7C435.9 368.418 436.482 369 437.2 369Z" fill="#F4B178"/>
<path d="M389.5 329C390.549 329 391.4 328.15 391.4 327.1C391.4 326.051 390.549 325.2 389.5 325.2C388.451 325.2 387.6 326.051 387.6 327.1C387.6 328.15 388.451 329 389.5 329Z" fill="#F4B178"/>
<path d="M332.2 113.5C333.581 113.5 334.7 112.381 334.7 111C334.7 109.619 333.581 108.5 332.2 108.5C330.819 108.5 329.7 109.619 329.7 111C329.7 112.381 330.819 113.5 332.2 113.5Z" fill="#F4B178"/>
<path d="M345 84.4001C346.049 84.4001 346.9 83.5494 346.9 82.5001C346.9 81.4508 346.049 80.6001 345 80.6001C343.951 80.6001 343.1 81.4508 343.1 82.5001C343.1 83.5494 343.951 84.4001 345 84.4001Z" fill="#F4B178"/>
<path d="M366.7 95.6C367.418 95.6 368 95.018 368 94.3C368 93.582 367.418 93 366.7 93C365.982 93 365.4 93.582 365.4 94.3C365.4 95.018 365.982 95.6 366.7 95.6Z" fill="#F4B178"/>
<path d="M347.9 105.3C348.618 105.3 349.2 104.718 349.2 104C349.2 103.282 348.618 102.7 347.9 102.7C347.182 102.7 346.6 103.282 346.6 104C346.6 104.718 347.182 105.3 347.9 105.3Z" fill="#F4B178"/>
<path d="M339 66.2002C340.381 66.2002 341.5 65.0809 341.5 63.7002C341.5 62.3195 340.381 61.2002 339 61.2002C337.619 61.2002 336.5 62.3195 336.5 63.7002C336.5 65.0809 337.619 66.2002 339 66.2002Z" fill="#F4B178"/>
<path d="M320.6 69.0001C321.318 69.0001 321.9 68.4181 321.9 67.7001C321.9 66.9822 321.318 66.4001 320.6 66.4001C319.882 66.4001 319.3 66.9822 319.3 67.7001C319.3 68.4181 319.882 69.0001 320.6 69.0001Z" fill="#F4B178"/>
<path d="M302.5 81.9001C303.549 81.9001 304.4 81.0494 304.4 80.0001C304.4 78.9508 303.549 78.1001 302.5 78.1001C301.451 78.1001 300.6 78.9508 300.6 80.0001C300.6 81.0494 301.451 81.9001 302.5 81.9001Z" fill="#F4B178"/>
<path d="M303.2 57.2002C304.581 57.2002 305.7 56.0809 305.7 54.7002C305.7 53.3195 304.581 52.2002 303.2 52.2002C301.819 52.2002 300.7 53.3195 300.7 54.7002C300.7 56.0809 301.819 57.2002 303.2 57.2002Z" fill="#F4B178"/>
<path d="M278.6 54.9001C279.649 54.9001 280.5 54.0494 280.5 53.0001C280.5 51.9508 279.649 51.1001 278.6 51.1001C277.551 51.1001 276.7 51.9508 276.7 53.0001C276.7 54.0494 277.551 54.9001 278.6 54.9001Z" fill="#F4B178"/>
</g>
</g>
<defs>
<clipPath id="clip0">
<rect width="512" height="512" rx="256" fill="white"/>
</clipPath>
<clipPath id="clip1">
<rect width="512" height="511.8" fill="white"/>
</clipPath>
</defs>
</svg>
