<svg width="367" height="111" viewBox="0 0 367 111" fill="none" xmlns="http://www.w3.org/2000/svg">
<g clip-path="url(#clip0)">
<path d="M60.6447 26H51.9391V43.0558C51.0508 41.8122 48.5635 39.3249 41.9898 39.3249C34.1726 39.3249 26 45.5431 26 56.0254C26 65.797 32.3959 72.1929 41.1015 72.1929C47.8528 72.1929 50.1624 69.8832 51.9391 67.3959C51.9391 68.6396 52.1168 70.2386 52.1168 71.3046H60.6447C60.6447 68.2843 60.6447 65.264 60.6447 62.4213V26ZM43.5888 65.6193C37.9036 65.6193 34.8832 61.1777 34.8832 56.0254C34.8832 51.0508 37.7259 46.2538 43.5888 46.2538C49.9848 46.2538 52.1168 49.9848 52.1168 55.8477C52.1168 61.7107 49.4518 65.6193 43.5888 65.6193Z" fill="white"/>
<path d="M128.868 51.9392C122.65 51.0509 121.406 49.9849 121.406 48.3859C121.406 47.1423 122.294 45.3656 126.558 45.3656C131.711 45.3656 132.954 47.4976 133.31 49.0966H141.838C141.482 44.8326 137.751 39.5027 126.736 39.5027C116.076 39.5027 112.701 44.8326 112.701 49.2743C112.701 53.1829 114.477 57.2692 126.203 58.8682C132.954 59.7565 134.376 60.8225 134.376 62.9545C134.376 64.9088 132.954 66.3301 128.157 66.3301C123.538 66.3301 121.051 64.5534 120.162 61.8885H111.635C112.701 68.6397 118.919 72.3707 127.624 72.3707C138.64 72.3707 142.904 67.7514 142.904 62.0661C143.081 57.8022 141.127 53.7159 128.868 51.9392Z" fill="white"/>
<path d="M177.904 50.6955C177.904 45.5432 175.772 39.325 162.802 39.325C150.899 39.325 148.234 45.3656 147.878 49.4519H156.584C157.117 47.3199 158.183 45.3656 162.98 45.3656C168.31 45.3656 169.376 47.8529 169.376 50.5178V51.7615C168.31 51.7615 165.289 51.7615 162.447 51.7615C153.386 51.7615 146.102 54.0711 146.102 62.2437C146.102 67.2184 149.477 72.3706 158.183 72.3706C164.223 72.3706 167.954 70.594 169.553 67.5737C169.553 68.462 169.731 70.594 169.909 71.4823H178.081C178.081 70.7717 177.904 66.863 177.904 62.9544V50.6955V50.6955ZM169.553 58.1574C169.553 62.9544 167.066 66.1524 160.67 66.1524C156.584 66.1524 154.807 64.198 154.807 61.8884C154.807 58.8681 157.294 57.4468 162.98 57.4468C166.711 57.4468 168.843 57.4468 169.731 57.4468V58.1574H169.553Z" fill="white"/>
<path d="M199.579 51.9392C193.36 51.0509 192.117 49.9849 192.117 48.3859C192.117 47.1423 193.005 45.3656 197.269 45.3656C202.421 45.3656 203.665 47.4976 204.02 49.0966H212.548C212.193 44.8326 208.462 39.5027 197.447 39.5027C186.787 39.5027 183.411 44.8326 183.411 49.2743C183.411 53.1829 185.188 57.2692 196.914 58.8682C203.665 59.7565 205.086 60.8225 205.086 62.9545C205.086 64.9088 203.665 66.3301 198.868 66.3301C194.249 66.3301 191.761 64.5534 190.873 61.8885H182.345C183.411 68.6397 189.629 72.3707 198.335 72.3707C209.35 72.3707 213.614 67.7514 213.614 62.0661C213.792 57.8022 212.015 53.7159 199.579 51.9392Z" fill="white"/>
<path d="M251.635 64.3756C251.102 61.5329 249.858 57.269 244.883 40.2131H236.711C231.736 56.736 230.492 60.8223 229.604 64.5532C229.071 61.1776 228.005 56.5583 223.563 40.2131H214.68L224.274 71.4822H233.69C237.066 61.3553 239.553 53.005 240.442 49.807C241.508 53.7157 243.64 60.4669 247.015 71.4822H256.254L266.381 40.2131H257.853C253.589 55.4923 252.345 61.1776 251.635 64.3756Z" fill="white"/>
<path d="M299.071 50.6955C299.071 45.5432 296.939 39.325 283.97 39.325C272.066 39.325 269.401 45.3656 269.046 49.4519H277.751C278.284 47.3199 279.35 45.3656 284.147 45.3656C289.477 45.3656 290.543 47.8529 290.543 50.5178V51.7615C289.477 51.7615 286.457 51.7615 283.614 51.7615C274.553 51.7615 267.269 54.0711 267.269 62.2437C267.269 67.2184 270.645 72.3706 279.35 72.3706C285.391 72.3706 289.122 70.594 290.721 67.5737C290.721 68.462 290.898 70.594 291.076 71.4823H299.249C299.249 70.7717 299.071 66.863 299.071 62.9544V50.6955ZM290.543 58.1574C290.543 62.9544 288.056 66.1524 281.66 66.1524C277.574 66.1524 275.797 64.198 275.797 61.8884C275.797 58.8681 278.284 57.4468 283.97 57.4468C287.701 57.4468 289.832 57.4468 290.721 57.4468V58.1574H290.543Z" fill="white"/>
<path d="M326.254 39.325C320.036 39.325 316.838 41.8123 315.061 44.6549C315.061 43.0559 314.883 40.9239 314.883 40.2133H306.355C306.355 42.7006 306.355 45.3656 306.355 48.0305V84.9848H315.061V68.1067C316.66 70.2387 319.503 72.5483 325.188 72.5483C333.538 72.5483 341 66.1524 341 55.4925C341 46.2539 334.426 39.325 326.254 39.325ZM323.411 65.4417C317.726 65.4417 314.706 61.7107 314.706 55.8478C314.706 50.1625 317.193 46.0762 323.411 46.0762C329.096 46.0762 331.939 50.6955 331.939 55.6701C332.117 61.3554 329.096 65.4417 323.411 65.4417Z" fill="white"/>
<path d="M87.4721 32.7512C75.7462 32.7512 66.33 42.1675 66.33 53.8934C66.33 65.6192 75.7462 75.2131 87.4721 75.2131C99.198 75.2131 108.614 65.7969 108.614 54.071C108.614 42.3451 99.198 32.7512 87.4721 32.7512ZM87.6497 72.0152V69.7055C96.1777 69.5279 103.107 62.5989 103.107 54.071C103.107 45.5431 96.1777 38.6142 87.6497 38.4365V36.1269C97.4213 36.3045 105.416 44.2994 105.416 54.071C105.416 63.8426 97.4213 71.8375 87.6497 72.0152ZM87.6497 41.1015C94.7563 41.2791 100.442 46.9644 100.442 54.071C100.442 61.1776 94.7563 66.8629 87.6497 66.8629V64.3756C93.335 64.1979 97.7767 59.5786 97.7767 54.071C97.7767 48.5634 93.1574 43.7664 87.6497 43.7664V41.1015ZM97.4213 54.071C97.4213 59.5786 92.9797 64.0203 87.6497 64.0203V43.9441C93.1574 44.1218 97.4213 48.5634 97.4213 54.071ZM100.797 54.071C100.797 46.7868 94.934 40.9238 87.6497 40.7461V38.7918C96 38.9695 102.751 45.7208 102.751 54.071C102.751 62.4213 96 69.1725 87.6497 69.3502V67.3959C94.934 67.2182 100.797 61.1776 100.797 54.071ZM72.0152 54.071C72.0152 45.5431 78.7665 38.7918 87.2944 38.6142V40.7461V40.9238C80.1878 40.9238 74.3249 46.7868 74.3249 54.071C74.3249 61.3553 80.0102 67.0406 87.2944 67.2182V67.3959V69.5279C78.7665 69.3502 72.0152 62.4213 72.0152 54.071Z" fill="white"/>
<path d="M88.538 60.4669C88.538 60.2892 88.538 60.1116 88.3603 60.1116C88.1827 60.1116 88.005 60.1116 88.005 60.2892C88.005 60.4669 88.005 60.6446 88.1827 60.6446C88.3603 60.6446 88.538 60.4669 88.538 60.4669Z" fill="white"/>
<path d="M89.4263 61.5331C89.4263 61.3554 89.4263 61.1777 89.2486 61.1777C89.071 61.1777 88.8933 61.1777 88.8933 61.3554C88.8933 61.5331 88.8933 61.7107 89.071 61.7107C89.071 61.7107 89.2486 61.7107 89.4263 61.5331Z" fill="white"/>
<path d="M90.1369 59.5787C90.3146 59.5787 90.3146 59.5787 90.4922 59.5787C90.4922 59.4011 90.4922 59.4011 90.4922 59.2234C90.3146 59.2234 90.3146 59.2234 90.1369 59.2234C89.9592 59.4011 89.9592 59.5787 90.1369 59.5787Z" fill="white"/>
<path d="M91.2031 58.3351C91.2031 58.1575 91.2031 58.1575 91.2031 58.3351C91.2031 58.1575 91.0254 58.1575 91.0254 58.1575C91.0254 58.1575 91.0254 58.3351 91.2031 58.3351Z" fill="white"/>
<path d="M92.4467 57.9796V58.1573H92.6243V57.9796C92.6243 57.9796 92.4467 57.8019 92.4467 57.9796Z" fill="white"/>
<path d="M92.6244 56.736H92.802V56.5583H92.6244V56.736Z" fill="white"/>
<path d="M93.1574 54.4262C93.1574 54.2485 92.9797 54.2485 92.9797 54.2485C92.9797 54.2485 92.8021 54.4262 93.1574 54.4262C92.9797 54.6039 92.9797 54.6039 93.1574 54.4262Z" fill="white"/>
<path d="M92.6243 53.3605V53.1829H92.4467V53.3605H92.6243Z" fill="white"/>
<path d="M91.5584 50.3402C91.5584 50.1625 91.5584 49.9849 91.3807 49.9849C91.2031 49.9849 91.0254 49.9849 91.0254 50.1625C91.0254 50.3402 91.0254 50.5179 91.2031 50.5179C91.3807 50.5179 91.5584 50.3402 91.5584 50.3402Z" fill="white"/>
<path d="M95.1117 48.3857C95.2894 48.208 95.2894 48.208 95.1117 48.3857C95.1117 48.208 94.9341 48.208 94.9341 48.208C94.9341 48.208 94.9341 48.3857 95.1117 48.3857Z" fill="white"/>
<path d="M98.8427 49.807C98.8427 49.6293 98.8427 49.6293 98.8427 49.4517C98.6651 49.4517 98.6651 49.4517 98.4874 49.4517C98.3097 49.4517 98.4874 49.6293 98.4874 49.807C98.6651 49.9847 98.8427 49.9847 98.8427 49.807Z" fill="white"/>
<path d="M100.619 48.7411C100.442 48.5634 100.264 48.7411 100.086 48.9187C99.9087 49.0964 100.086 49.2741 100.264 49.4517C100.442 49.6294 100.619 49.4517 100.797 49.2741C100.797 49.0964 100.797 48.9187 100.619 48.7411Z" fill="white"/>
<path d="M101.863 50.3403V50.1626H101.685V50.3403C101.685 50.3403 101.685 50.3403 101.863 50.3403Z" fill="white"/>
<path d="M102.396 47.4975C102.396 47.6752 102.396 47.8528 102.574 47.8528C102.751 47.8528 102.929 47.8528 102.929 47.6752C102.929 47.4975 102.929 47.3198 102.751 47.3198C102.574 47.3198 102.396 47.3198 102.396 47.4975Z" fill="white"/>
<path d="M100.797 45.1877C100.797 45.3653 100.797 45.543 100.975 45.543C101.152 45.543 101.33 45.543 101.33 45.3653C101.33 45.1877 101.33 45.01 101.152 45.01C100.975 45.01 100.797 45.01 100.797 45.1877Z" fill="white"/>
<path d="M96.7108 55.3148C96.8884 55.1372 96.7108 54.9595 96.5331 54.7818C96.3554 54.6042 96.1778 54.7818 96.0001 54.9595C95.8224 55.1372 96.0001 55.3148 96.1778 55.4925C96.3554 55.6702 96.5331 55.4925 96.7108 55.3148Z" fill="white"/>
<path d="M98.4873 53.1828C98.4873 53.1828 98.4873 53.0051 98.4873 53.1828C98.4873 53.0051 98.3097 53.0051 98.3097 53.0051C98.132 53.1828 98.3097 53.1828 98.4873 53.1828C98.4873 53.1828 98.3097 53.1828 98.4873 53.1828Z" fill="white"/>
<path d="M97.5989 46.6091C97.5989 46.4314 97.4213 46.4314 97.4213 46.4314C97.4213 46.6091 97.4213 46.6091 97.5989 46.6091C97.5989 46.7867 97.4213 46.7867 97.5989 46.6091Z" fill="white"/>
<path d="M99.0204 42.3452V42.5228H99.1981V42.3452C99.1981 42.1675 99.0204 42.1675 99.0204 42.3452Z" fill="white"/>
<path d="M97.7766 41.2792C97.7766 41.4568 97.7766 41.4568 97.7766 41.6345C97.7766 41.8122 97.9543 41.6345 98.1319 41.6345C98.1319 41.4568 98.1319 41.4568 98.1319 41.2792C97.9543 41.1015 97.7766 41.2792 97.7766 41.2792Z" fill="white"/>
<path d="M96.8883 42.8782V43.0558H97.066V42.8782H96.8883Z" fill="white"/>
<path d="M90.137 48.0304V47.8528H89.9594V48.0304C89.9594 48.0304 89.9593 48.0304 90.137 48.0304Z" fill="white"/>
<path d="M91.736 69.1726C91.5583 69.1726 91.5583 69.3503 91.5583 69.5279C91.5583 69.7056 91.736 69.7056 91.9137 69.7056C92.0913 69.7056 92.0913 69.5279 92.0913 69.3503C91.9137 69.1726 91.9137 69.1726 91.736 69.1726Z" fill="white"/>
<path d="M93.3349 68.9948C93.3349 68.9948 93.3349 69.1725 93.3349 68.9948C93.5126 68.9948 93.5126 68.9948 93.5126 68.9948C93.5126 68.8172 93.3349 68.8172 93.3349 68.9948C93.1573 68.9948 93.3349 68.9948 93.3349 68.9948Z" fill="white"/>
<path d="M94.5787 69.5278C94.5787 69.5278 94.4011 69.7055 94.5787 69.7055C94.5787 69.7055 94.7564 69.8832 94.7564 69.7055C94.7564 69.7055 94.934 69.5278 94.7564 69.5278H94.5787Z" fill="white"/>
<path d="M95.4671 68.4619C95.4671 68.4619 95.2895 68.6396 95.4671 68.6396C95.4671 68.6396 95.6448 68.8172 95.6448 68.6396C95.6448 68.6396 95.8225 68.4619 95.6448 68.4619C95.6448 68.4619 95.6448 68.4619 95.4671 68.4619Z" fill="white"/>
<path d="M97.066 67.0405C97.2437 67.0405 97.2437 67.0405 97.2437 67.0405C97.066 66.8628 97.066 66.8628 97.066 67.0405C96.8884 67.0405 97.066 66.8628 97.066 67.0405Z" fill="white"/>
<path d="M98.4874 62.7767C98.6651 62.7767 98.6651 62.599 98.6651 62.4213C98.6651 62.2437 98.4874 62.2437 98.3098 62.2437C98.1321 62.2437 98.1321 62.4213 98.1321 62.599C98.1321 62.7767 98.3097 62.9543 98.4874 62.7767Z" fill="white"/>
<path d="M102.396 63.3098C102.574 63.3098 102.574 63.3098 102.574 63.3098C102.574 63.1321 102.396 63.1321 102.396 63.3098C102.396 63.3098 102.396 63.1321 102.396 63.3098Z" fill="white"/>
<path d="M98.4874 59.7563C98.4874 59.7563 98.3097 59.934 98.4874 59.934C98.4874 59.934 98.6651 60.1117 98.6651 59.934C98.6651 59.7563 98.8427 59.7563 98.6651 59.7563H98.4874Z" fill="white"/>
<path d="M93.5127 41.9899C93.5127 42.1676 93.5127 42.1676 93.5127 42.3453C93.6904 42.3453 93.6904 42.3453 93.868 42.3453C93.868 42.1676 93.868 42.1676 93.868 41.9899C93.6904 41.8123 93.6904 41.8123 93.5127 41.9899Z" fill="white"/>
<path d="M94.5787 39.5027V39.6804H94.7564V39.5027C94.7564 39.5027 94.7564 39.5027 94.5787 39.5027Z" fill="white"/>
<path d="M96.533 40.5686C96.533 40.5686 96.533 40.7463 96.533 40.5686C96.533 40.7463 96.7106 40.7463 96.7106 40.7463C96.7106 40.5686 96.7106 40.5686 96.533 40.5686Z" fill="white"/>
<path d="M94.9341 41.4567C94.9341 41.6344 95.1117 41.6344 95.1117 41.6344C95.1117 41.4567 95.1117 41.2791 94.9341 41.4567C94.9341 41.2791 95.1117 41.2791 94.9341 41.4567Z" fill="white"/>
<path d="M94.0457 37.9034C94.0457 38.0811 94.0457 38.0811 94.0457 38.2588C94.2233 38.2588 94.2233 38.2588 94.401 38.2588C94.401 38.0811 94.401 38.0811 94.401 37.9034C94.401 37.7258 94.2233 37.9034 94.0457 37.9034Z" fill="white"/>
<path d="M92.6244 38.4365C92.6244 38.6141 92.802 38.6141 92.802 38.6141C92.9797 38.4365 92.8021 38.4365 92.6244 38.4365C92.8021 38.2588 92.8021 38.2588 92.6244 38.4365Z" fill="white"/>
<path d="M91.203 39.325V39.5026H91.3807V39.325C91.203 39.325 91.203 39.325 91.203 39.325Z" fill="white"/>
<path d="M91.203 37.1929C91.203 37.3705 91.203 37.3705 91.203 37.5482C91.3807 37.5482 91.3807 37.5482 91.5583 37.5482C91.736 37.5482 91.5583 37.3705 91.5583 37.1929C91.3807 37.1929 91.203 37.1929 91.203 37.1929Z" fill="white"/>
<path d="M89.2488 37.1931V37.3707H89.4264V37.1931C89.2488 37.0154 89.2488 37.0154 89.2488 37.1931Z" fill="white"/>
</g>
<defs>
<clipPath id="clip0">
<rect width="315" height="58.9848" fill="white" transform="translate(26 26)"/>
</clipPath>
</defs>
</svg>
